<?xml version="1.0" encoding="UTF-8" standalone="no"?>
<!-- Created with Inkscape (http://www.inkscape.org/) -->

<svg
   version="1.1"
   id="svg1"
   width="470.84"
   height="460.30667"
   viewBox="0 0 470.84 460.30667"
   sodipodi:docname="test-25.eps"
   xmlns:inkscape="http://www.inkscape.org/namespaces/inkscape"
   xmlns:sodipodi="http://sodipodi.sourceforge.net/DTD/sodipodi-0.dtd"
   xmlns="http://www.w3.org/2000/svg"
   xmlns:svg="http://www.w3.org/2000/svg">
  <defs
     id="defs1" />
  <sodipodi:namedview
     id="namedview1"
     pagecolor="#ffffff"
     bordercolor="#000000"
     borderopacity="0.25"
     inkscape:showpageshadow="2"
     inkscape:pageopacity="0.0"
     inkscape:pagecheckerboard="0"
     inkscape:deskcolor="#d1d1d1">
    <inkscape:page
       x="0"
       y="0"
       inkscape:label="1"
       id="page1"
       width="470.84"
       height="460.30667"
       margin="0"
       bleed="0" />
  </sodipodi:namedview>
  <g
     id="g1"
     inkscape:groupmode="layer"
     inkscape:label="1">
    <path
       id="path1"
       d="M 708.793,1369.37 H 3408.59"
       style="fill:none;stroke:#000000;stroke-width:5;stroke-linecap:round;stroke-linejoin:round;stroke-miterlimit:10;stroke-dasharray:none;stroke-opacity:1"
       transform="matrix(0.13333333,0,0,-0.13333333,0,460.30667)" />
    <path
       id="path2"
       d="m 708.793,1369.37 v 0"
       style="fill:none;stroke:#000000;stroke-width:30;stroke-linecap:round;stroke-linejoin:round;stroke-miterlimit:10;stroke-dasharray:none;stroke-opacity:1"
       transform="matrix(0.13333333,0,0,-0.13333333,0,460.30667)" />
    <path
       id="path3"
       d="m 3408.59,1369.37 v 0"
       style="fill:none;stroke:#000000;stroke-width:30;stroke-linecap:round;stroke-linejoin:round;stroke-miterlimit:10;stroke-dasharray:none;stroke-opacity:1"
       transform="matrix(0.13333333,0,0,-0.13333333,0,460.30667)" />
    <path
       id="path4"
       d="m 3506.51,1892.76 c 0,7.58 -0.06,15.16 -0.18,22.74 -0.12,7.58 -0.3,15.16 -0.54,22.73 -0.24,7.58 -0.53,15.16 -0.89,22.73 -0.36,7.57 -0.77,15.14 -1.25,22.71 -0.47,7.56 -1.01,15.13 -1.61,22.68 -0.59,7.56 -1.24,15.11 -1.96,22.66 -0.71,7.55 -1.48,15.09 -2.31,22.62 -0.84,7.54 -1.73,15.07 -2.68,22.59 -0.95,7.52 -1.96,15.03 -3.03,22.54 -1.06,7.5 -2.19,15 -3.38,22.49 -1.18,7.48 -2.43,14.96 -3.73,22.43 -1.31,7.47 -2.67,14.93 -4.09,22.37 -1.42,7.45 -2.9,14.88 -4.43,22.31 -1.54,7.42 -3.14,14.83 -4.79,22.23 -1.66,7.4 -3.37,14.79 -5.14,22.16 -1.77,7.37 -3.59,14.72 -5.48,22.07 -1.88,7.34 -3.82,14.66 -5.83,21.98 -2,7.31 -4.05,14.61 -6.17,21.89 -2.11,7.27 -4.29,14.54 -6.52,21.79 -2.23,7.24 -4.51,14.47 -6.86,21.68 -2.34,7.21 -4.73,14.4 -7.19,21.57 -2.46,7.17 -4.97,14.32 -7.54,21.46 -2.56,7.13 -5.19,14.24 -7.87,21.33 -2.68,7.1 -5.41,14.17 -8.2,21.21 -2.79,7.06 -5.64,14.08 -8.54,21.08 -2.9,7.01 -5.86,13.99 -8.87,20.94 -3.01,6.96 -6.07,13.9 -9.2,20.8 -3.11,6.91 -6.29,13.8 -9.52,20.66 -3.22,6.86 -6.5,13.69 -9.84,20.5 -3.33,6.81 -6.72,13.59 -10.17,20.34 -3.44,6.76 -6.93,13.49 -10.48,20.18 -3.54,6.7 -7.15,13.38 -10.8,20.02 -3.65,6.64 -7.35,13.26 -11.11,19.84 -3.76,6.59 -7.56,13.14 -11.42,19.67 -3.86,6.52 -7.77,13.02 -11.73,19.48 -3.96,6.46 -7.98,12.9 -12.04,19.3 -4.06,6.4 -8.17,12.76 -12.33,19.1 -4.16,6.34 -8.38,12.64 -12.64,18.91 -4.26,6.27 -8.57,12.51 -12.93,18.71 -4.36,6.2 -8.76,12.37 -13.22,18.5 -4.46,6.13 -8.96,12.24 -13.51,18.29 -4.55,6.07 -9.15,12.09 -13.8,18.09 -4.65,5.99 -9.34,11.94 -14.08,17.86 -4.74,5.91 -9.52,11.79 -14.36,17.63 -4.83,5.84 -9.71,11.64 -14.63,17.41 -4.92,5.76 -9.89,11.49 -14.91,17.17 -5.01,5.69 -10.07,11.34 -15.17,16.95 -5.1,5.6 -10.25,11.17 -15.43,16.7 -5.2,5.52 -10.43,11.01 -15.7,16.45 -5.28,5.44 -10.6,10.85 -15.96,16.21 -5.36,5.36 -10.76,10.68 -16.2,15.95 -5.45,5.28 -10.93,10.51 -16.46,15.7 -5.52,5.19 -11.09,10.34 -16.7,15.44 -5.61,5.1 -11.25,10.16 -16.94,15.17 -5.69,5.01 -11.41,9.98 -17.18,14.91 -5.76,4.92 -11.56,9.8 -17.4,14.63 -5.85,4.83 -11.73,9.62 -17.64,14.36 -5.92,4.74 -11.87,9.43 -17.86,14.08 -5.99,4.64 -12.02,9.24 -18.08,13.79 -6.06,4.56 -12.16,9.06 -18.29,13.52 -6.14,4.45 -12.31,8.86 -18.5,13.22 -6.21,4.36 -12.45,8.67 -18.72,12.93 -6.27,4.26 -12.57,8.47 -18.91,12.63 -6.33,4.17 -12.7,8.28 -19.1,12.34 -6.4,4.06 -12.83,8.07 -19.29,12.03 -6.47,3.96 -12.97,7.87 -19.49,11.73 -6.53,3.86 -13.08,7.67 -19.67,11.43 -6.58,3.75 -13.2,7.46 -19.84,11.11 -6.64,3.65 -13.31,7.25 -20.01,10.8 -6.7,3.55 -13.43,7.04 -20.18,10.48 -6.76,3.44 -13.54,6.83 -20.35,10.17 -6.8,3.33 -13.64,6.61 -20.5,9.84 -6.86,3.23 -13.74,6.4 -20.65,9.52 -6.91,3.12 -13.84,6.19 -20.8,9.2 -6.96,3.01 -13.94,5.96 -20.94,8.87 -7.01,2.9 -14.03,5.74 -21.08,8.53 -7.05,2.8 -14.12,5.53 -21.21,8.21 -7.09,2.68 -14.21,5.3 -21.34,7.87 -7.13,2.57 -14.28,5.08 -21.46,7.54 -7.17,2.45 -14.36,4.85 -21.57,7.19 -7.21,2.34 -14.44,4.63 -21.68,6.86 -7.25,2.23 -14.51,4.4 -21.79,6.52 -7.28,2.11 -14.58,4.17 -21.89,6.17 -7.31,2 -14.64,3.94 -21.98,5.83 -7.34,1.88 -14.7,3.71 -22.07,5.48 -7.37,1.77 -14.76,3.48 -22.16,5.14 -7.39,1.65 -14.81,3.25 -22.23,4.78 -7.42,1.54 -14.86,3.02 -22.31,4.44 -7.44,1.42 -14.9,2.78 -22.37,4.09 -7.47,1.3 -14.94,2.54 -22.43,3.73 -7.49,1.18 -14.98,2.31 -22.49,3.38 -7.5,1.07 -15.02,2.08 -22.54,3.03 -7.52,0.95 -15.05,1.84 -22.58,2.67 -7.54,0.83 -15.08,1.6 -22.62,2.32 -7.55,0.71 -15.11,1.37 -22.66,1.96 -7.56,0.6 -15.12,1.13 -22.69,1.61 -7.56,0.47 -15.14,0.89 -22.71,1.24 -7.57,0.36 -15.14,0.66 -22.72,0.9 -7.58,0.24 -15.15,0.42 -22.74,0.53 -7.57,0.13 -15.16,0.18 -22.74,0.18 -7.58,0 -15.16,-0.05 -22.74,-0.18 -7.58,-0.11 -15.16,-0.29 -22.74,-0.53 -7.57,-0.24 -15.15,-0.54 -22.72,-0.9 -7.57,-0.35 -15.14,-0.77 -22.7,-1.24 -7.57,-0.48 -15.13,-1.01 -22.69,-1.61 -7.56,-0.59 -15.11,-1.25 -22.66,-1.96 -7.55,-0.72 -15.09,-1.49 -22.62,-2.32 -7.54,-0.83 -15.07,-1.72 -22.59,-2.67 -7.52,-0.95 -15.03,-1.96 -22.53,-3.03 -7.51,-1.07 -15.01,-2.2 -22.5,-3.38 -7.48,-1.19 -14.96,-2.43 -22.43,-3.73 -7.47,-1.31 -14.93,-2.67 -22.37,-4.09 -7.45,-1.42 -14.88,-2.9 -22.31,-4.44 -7.42,-1.53 -14.83,-3.13 -22.23,-4.78 -7.4,-1.66 -14.78,-3.37 -22.15,-5.14 -7.37,-1.77 -14.73,-3.6 -22.07,-5.48 -7.35,-1.89 -14.68,-3.83 -21.99,-5.83 -7.31,-2 -14.61,-4.06 -21.88,-6.17 -7.29,-2.12 -14.55,-4.29 -21.79,-6.52 -7.25,-2.23 -14.48,-4.52 -21.69,-6.86 -7.21,-2.34 -14.4,-4.74 -21.57,-7.19 -7.17,-2.46 -14.33,-4.97 -21.46,-7.54 -7.13,-2.57 -14.24,-5.19 -21.33,-7.87 -7.09,-2.68 -14.16,-5.41 -21.22,-8.21 -7.04,-2.79 -14.07,-5.63 -21.07,-8.53 -7.01,-2.91 -13.99,-5.86 -20.94,-8.87 -6.96,-3.01 -13.9,-6.08 -20.81,-9.2 -6.9,-3.12 -13.79,-6.29 -20.65,-9.52 -6.86,-3.23 -13.69,-6.51 -20.5,-9.84 -6.81,-3.34 -13.59,-6.73 -20.34,-10.17 -6.76,-3.44 -13.48,-6.93 -20.18,-10.48 -6.7,-3.55 -13.38,-7.15 -20.02,-10.8 -6.64,-3.65 -13.25,-7.36 -19.84,-11.11 -6.59,-3.76 -13.14,-7.57 -19.66,-11.43 -6.53,-3.86 -13.02,-7.77 -19.49,-11.73 -6.46,-3.96 -12.89,-7.97 -19.3,-12.03 -6.39,-4.06 -12.77,-8.17 -19.1,-12.34 -6.34,-4.16 -12.64,-8.37 -18.91,-12.63 -6.27,-4.26 -12.51,-8.57 -18.71,-12.93 -6.2,-4.36 -12.37,-8.77 -18.5,-13.22 -6.14,-4.46 -12.23,-8.96 -18.3,-13.52 -6.06,-4.55 -12.09,-9.15 -18.07,-13.79 -5.99,-4.65 -11.94,-9.34 -17.86,-14.08 -5.92,-4.74 -11.8,-9.53 -17.64,-14.36 -5.84,-4.83 -11.64,-9.71 -17.41,-14.63 -5.76,-4.93 -11.49,-9.9 -17.18,-14.91 -5.68,-5.01 -11.33,-10.07 -16.93,-15.17 -5.61,-5.1 -11.18,-10.25 -16.71,-15.44 -5.52,-5.19 -11.01,-10.42 -16.45,-15.7 -5.44,-5.27 -10.85,-10.59 -16.21,-15.95 -5.36,-5.36 -10.68,-10.77 -15.95,-16.21 -5.28,-5.44 -10.51,-10.93 -15.7,-16.45 -5.19,-5.53 -10.335,-11.1 -15.436,-16.7 -5.102,-5.61 -10.16,-11.26 -15.172,-16.95 -5.016,-5.68 -9.984,-11.41 -14.906,-17.17 -4.922,-5.77 -9.801,-11.57 -14.633,-17.41 -4.832,-5.84 -9.621,-11.72 -14.36,-17.63 -4.738,-5.92 -9.433,-11.87 -14.078,-17.86 -4.648,-6 -9.246,-12.02 -13.797,-18.09 -4.554,-6.05 -9.058,-12.16 -13.511,-18.29 -4.457,-6.13 -8.864,-12.3 -13.223,-18.5 -4.359,-6.2 -8.672,-12.44 -12.93,-18.71 -4.261,-6.27 -8.472,-12.57 -12.636,-18.91 -4.16,-6.34 -8.274,-12.7 -12.336,-19.1 -4.063,-6.4 -8.074,-12.84 -12.035,-19.3 -3.961,-6.46 -7.872,-12.96 -11.731,-19.48 -3.859,-6.53 -7.664,-13.08 -11.422,-19.67 -3.754,-6.58 -7.461,-13.2 -11.113,-19.84 -3.648,-6.64 -7.25,-13.32 -10.797,-20.02 -3.547,-6.69 -7.043,-13.42 -10.484,-20.18 -3.442,-6.75 -6.828,-13.53 -10.164,-20.34 -3.336,-6.81 -6.618,-13.64 -9.844,-20.5 -3.231,-6.86 -6.402,-13.75 -9.524,-20.66 -3.117,-6.9 -6.183,-13.84 -9.195,-20.8 -3.012,-6.95 -5.965,-13.93 -8.867,-20.94 -2.902,-7 -5.746,-14.02 -8.539,-21.08 -2.789,-7.04 -5.524,-14.11 -8.203,-21.21 -2.68,-7.09 -5.305,-14.2 -7.871,-21.33 -2.571,-7.14 -5.082,-14.29 -7.535,-21.46 -2.458,-7.17 -4.856,-14.36 -7.2,-21.57 -2.343,-7.21 -4.629,-14.44 -6.855,-21.68 -2.231,-7.25 -4.403,-14.52 -6.52,-21.79 -2.113,-7.28 -4.172,-14.58 -6.172,-21.89 -2,-7.32 -3.941,-14.64 -5.828,-21.98 -1.886,-7.35 -3.711,-14.7 -5.48,-22.07 -1.774,-7.37 -3.485,-14.76 -5.137,-22.16 -1.652,-7.4 -3.25,-14.81 -4.785,-22.23 -1.539,-7.43 -3.02,-14.86 -4.438,-22.31 -1.421,-7.44 -2.785,-14.9 -4.085,-22.37 -1.305,-7.47 -2.551,-14.95 -3.735,-22.43 -1.187,-7.49 -2.312,-14.99 -3.383,-22.49 -1.066,-7.51 -2.074,-15.02 -3.027,-22.54 -0.949,-7.52 -1.84,-15.05 -2.672,-22.59 -0.832,-7.53 -1.605,-15.07 -2.316,-22.62 -0.715,-7.55 -1.367,-15.1 -1.965,-22.66 -0.594,-7.55 -1.129,-15.12 -1.606,-22.68 -0.476,-7.57 -0.89,-15.14 -1.25,-22.71 -0.355,-7.57 -0.652,-15.15 -0.89,-22.73 -0.239,-7.57 -0.418,-15.15 -0.539,-22.73 -0.117,-7.58 -0.176,-15.16 -0.176,-22.74 0,-7.58 0.059,-15.16 0.176,-22.74 0.121,-7.58 0.3,-15.16 0.539,-22.74 0.238,-7.58 0.535,-15.15 0.89,-22.72 0.36,-7.58 0.774,-15.15 1.25,-22.71 0.477,-7.56 1.012,-15.13 1.606,-22.69 0.598,-7.55 1.25,-15.11 1.965,-22.65 0.711,-7.55 1.484,-15.09 2.316,-22.63 0.832,-7.53 1.723,-15.06 2.672,-22.58 0.953,-7.52 1.961,-15.03 3.027,-22.54 1.071,-7.51 2.196,-15 3.383,-22.49 1.184,-7.48 2.43,-14.97 3.735,-22.43 1.3,-7.47 2.664,-14.93 4.085,-22.38 1.418,-7.44 2.899,-14.88 4.438,-22.3 1.535,-7.42 3.133,-14.83 4.785,-22.23 1.652,-7.4 3.363,-14.79 5.137,-22.16 1.769,-7.37 3.594,-14.73 5.48,-22.07 1.887,-7.34 3.828,-14.67 5.828,-21.98 2,-7.31 4.059,-14.61 6.172,-21.89 2.117,-7.28 4.289,-14.54 6.52,-21.79 2.226,-7.24 4.512,-14.47 6.855,-21.68 2.344,-7.21 4.742,-14.4 7.2,-21.57 2.453,-7.18 4.964,-14.33 7.535,-21.46 2.566,-7.13 5.191,-14.24 7.871,-21.34 2.679,-7.09 5.414,-14.16 8.203,-21.21 2.793,-7.05 5.637,-14.07 8.539,-21.08 2.902,-7 5.855,-13.98 8.867,-20.94 3.012,-6.96 6.078,-13.89 9.195,-20.8 3.122,-6.91 6.293,-13.79 9.524,-20.65 3.226,-6.86 6.508,-13.69 9.844,-20.5 3.336,-6.81 6.722,-13.59 10.164,-20.35 3.441,-6.75 6.937,-13.48 10.484,-20.17 3.547,-6.71 7.149,-13.38 10.797,-20.02 3.652,-6.64 7.359,-13.26 11.113,-19.84 3.758,-6.59 7.563,-13.14 11.422,-19.67 3.859,-6.53 7.77,-13.02 11.731,-19.48 3.961,-6.47 7.972,-12.9 12.035,-19.3 4.062,-6.4 8.176,-12.77 12.336,-19.1 4.164,-6.34 8.375,-12.65 12.636,-18.92 4.258,-6.26 8.571,-12.5 12.93,-18.7 4.359,-6.21 8.766,-12.37 13.223,-18.51 4.453,-6.13 8.957,-12.23 13.511,-18.29 4.551,-6.06 9.149,-12.08 13.797,-18.08 4.645,-5.985 9.34,-11.939 14.078,-17.857 4.739,-5.918 9.528,-11.796 14.36,-17.636 4.832,-5.84 9.711,-11.645 14.633,-17.41 4.922,-5.762 9.89,-11.489 14.906,-17.176 5.012,-5.684 10.07,-11.332 15.172,-16.938 5.101,-5.609 10.246,-11.175 15.436,-16.703 5.19,-5.523 10.42,-11.012 15.7,-16.453 5.27,-5.445 10.59,-10.848 15.95,-16.207 5.36,-5.359 10.77,-10.68 16.21,-15.953 5.44,-5.277 10.93,-10.512 16.45,-15.699 5.53,-5.192 11.1,-10.336 16.71,-15.438 5.6,-5.101 11.25,-10.16 16.93,-15.172 5.69,-5.015 11.42,-9.984 17.18,-14.906 5.77,-4.922 11.57,-9.801 17.41,-14.633 5.84,-4.832 11.72,-9.617 17.64,-14.359 5.92,-4.738 11.87,-9.434 17.86,-14.078 5.98,-4.649 12.01,-9.246 18.07,-13.797 6.07,-4.555 12.16,-9.059 18.3,-13.512 6.13,-4.457 12.3,-8.863 18.5,-13.223 6.2,-4.359 12.44,-8.671 18.71,-12.929 6.27,-4.262 12.57,-8.473 18.91,-12.637 6.33,-4.16 12.71,-8.273 19.1,-12.336 6.41,-4.062 12.84,-8.074 19.3,-12.035 6.47,-3.961 12.96,-7.871 19.49,-11.73 6.52,-3.86 13.07,-7.665 19.66,-11.422 6.59,-3.754 13.2,-7.461 19.84,-11.114 6.64,-3.648 13.32,-7.25 20.02,-10.797 6.7,-3.546 13.42,-7.042 20.18,-10.484 6.75,-3.441 13.53,-6.828 20.34,-10.164 6.81,-3.336 13.64,-6.617 20.5,-9.844 6.86,-3.23 13.75,-6.402 20.65,-9.523 6.91,-3.117 13.85,-6.184 20.81,-9.195 6.95,-3.012 13.93,-5.965 20.94,-8.868 7,-2.902 14.03,-5.746 21.07,-8.539 7.06,-2.789 14.13,-5.523 21.22,-8.203 7.09,-2.68 14.2,-5.305 21.33,-7.871 7.13,-2.57 14.29,-5.082 21.46,-7.535 7.17,-2.457 14.36,-4.856 21.57,-7.199 7.21,-2.344 14.44,-4.629 21.69,-6.856 7.24,-2.23 14.5,-4.402 21.79,-6.519 7.27,-2.114 14.57,-4.172 21.88,-6.172 7.31,-2 14.64,-3.942 21.99,-5.828 7.34,-1.887 14.7,-3.711 22.07,-5.481 7.37,-1.773 14.75,-3.484 22.15,-5.136 7.4,-1.653 14.81,-3.25 22.23,-4.786 7.43,-1.539 14.86,-3.019 22.31,-4.437 7.44,-1.422 14.9,-2.785 22.37,-4.086 7.47,-1.305 14.95,-2.551 22.43,-3.734 7.49,-1.188 14.99,-2.313 22.5,-3.383 7.5,-1.067 15.01,-2.074 22.53,-3.028 7.52,-0.949 15.05,-1.839 22.59,-2.671 7.53,-0.833 15.07,-1.606 22.62,-2.317 7.55,-0.715 15.1,-1.367 22.66,-1.965 7.56,-0.593 15.12,-1.129 22.69,-1.605 7.56,-0.477 15.13,-0.891 22.7,-1.25 7.57,-0.356 15.15,-0.653 22.72,-0.891 7.58,-0.238 15.16,-0.418 22.74,-0.539 7.58,-0.117 15.16,-0.176 22.74,-0.176 7.58,0 15.17,0.059 22.74,0.176 7.59,0.121 15.16,0.301 22.74,0.539 7.58,0.238 15.15,0.535 22.72,0.891 7.57,0.359 15.15,0.773 22.71,1.25 7.57,0.476 15.13,1.012 22.69,1.605 7.55,0.598 15.11,1.25 22.66,1.965 7.54,0.711 15.08,1.484 22.62,2.317 7.53,0.832 15.06,1.722 22.58,2.671 7.52,0.954 15.04,1.961 22.54,3.028 7.51,1.07 15,2.195 22.49,3.383 7.49,1.183 14.96,2.429 22.43,3.734 7.47,1.301 14.93,2.664 22.37,4.086 7.45,1.418 14.89,2.898 22.31,4.437 7.42,1.536 14.84,3.133 22.23,4.786 7.4,1.652 14.79,3.363 22.16,5.136 7.37,1.77 14.73,3.594 22.07,5.481 7.34,1.886 14.67,3.828 21.98,5.828 7.31,2 14.61,4.058 21.89,6.172 7.28,2.117 14.54,4.289 21.79,6.519 7.24,2.227 14.47,4.512 21.68,6.856 7.21,2.343 14.4,4.742 21.57,7.199 7.18,2.453 14.33,4.965 21.46,7.535 7.13,2.566 14.25,5.191 21.34,7.871 7.09,2.68 14.16,5.414 21.21,8.203 7.05,2.793 14.07,5.637 21.08,8.539 7,2.903 13.98,5.856 20.94,8.868 6.96,3.011 13.89,6.078 20.8,9.195 6.91,3.121 13.79,6.293 20.65,9.523 6.86,3.227 13.7,6.508 20.5,9.844 6.81,3.336 13.59,6.723 20.35,10.164 6.75,3.442 13.48,6.938 20.18,10.484 6.7,3.547 13.37,7.149 20.01,10.797 6.64,3.653 13.26,7.36 19.84,11.114 6.59,3.757 13.14,7.562 19.67,11.422 6.52,3.859 13.02,7.769 19.49,11.73 6.46,3.961 12.89,7.973 19.29,12.035 6.4,4.063 12.77,8.176 19.1,12.336 6.34,4.164 12.64,8.375 18.91,12.637 6.27,4.258 12.51,8.57 18.72,12.929 6.19,4.36 12.36,8.766 18.5,13.223 6.13,4.453 12.23,8.957 18.29,13.512 6.06,4.551 12.09,9.148 18.08,13.797 5.99,4.644 11.94,9.34 17.86,14.078 5.91,4.742 11.79,9.527 17.64,14.359 5.84,4.832 11.64,9.711 17.4,14.633 5.77,4.922 11.49,9.891 17.18,14.906 5.69,5.012 11.33,10.071 16.94,15.172 5.61,5.102 11.18,10.246 16.7,15.438 5.53,5.187 11.01,10.422 16.46,15.699 5.44,5.273 10.84,10.594 16.2,15.953 5.36,5.359 10.68,10.762 15.96,16.207 5.27,5.441 10.5,10.93 15.7,16.453 5.18,5.528 10.33,11.094 15.43,16.703 5.1,5.606 10.16,11.254 15.17,16.938 5.02,5.687 9.99,11.414 14.91,17.176 4.92,5.765 9.8,11.57 14.63,17.41 4.84,5.84 9.62,11.718 14.36,17.636 4.74,5.918 9.43,11.872 14.08,17.857 4.65,6 9.25,12.02 13.8,18.08 4.55,6.06 9.05,12.16 13.51,18.29 4.46,6.14 8.86,12.3 13.22,18.51 4.36,6.2 8.67,12.44 12.93,18.7 4.26,6.27 8.48,12.58 12.64,18.92 4.16,6.33 8.27,12.7 12.33,19.1 4.06,6.4 8.08,12.83 12.04,19.3 3.96,6.46 7.87,12.95 11.73,19.48 3.86,6.53 7.66,13.08 11.42,19.67 3.76,6.58 7.46,13.2 11.11,19.84 3.65,6.64 7.26,13.31 10.8,20.02 3.55,6.69 7.04,13.42 10.48,20.17 3.45,6.76 6.84,13.54 10.17,20.35 3.34,6.81 6.62,13.64 9.84,20.5 3.23,6.86 6.41,13.74 9.52,20.65 3.13,6.91 6.19,13.84 9.2,20.8 3.01,6.96 5.97,13.94 8.87,20.94 2.9,7.01 5.75,14.03 8.54,21.08 2.79,7.05 5.52,14.12 8.2,21.21 2.68,7.1 5.31,14.21 7.87,21.34 2.57,7.13 5.08,14.28 7.54,21.46 2.46,7.17 4.85,14.36 7.19,21.57 2.35,7.21 4.63,14.44 6.86,21.68 2.23,7.25 4.41,14.51 6.52,21.79 2.12,7.28 4.17,14.58 6.17,21.89 2.01,7.31 3.95,14.64 5.83,21.98 1.89,7.34 3.71,14.7 5.48,22.07 1.77,7.37 3.48,14.76 5.14,22.16 1.65,7.4 3.25,14.81 4.79,22.23 1.53,7.42 3.01,14.86 4.43,22.3 1.42,7.45 2.78,14.91 4.09,22.38 1.3,7.46 2.55,14.95 3.73,22.43 1.19,7.49 2.32,14.98 3.38,22.49 1.07,7.51 2.08,15.02 3.03,22.54 0.95,7.52 1.84,15.05 2.68,22.58 0.83,7.54 1.6,15.08 2.31,22.63 0.72,7.54 1.37,15.1 1.96,22.65 0.6,7.56 1.14,15.13 1.61,22.69 0.48,7.56 0.89,15.13 1.25,22.71 0.36,7.57 0.65,15.14 0.89,22.72 0.24,7.58 0.42,15.16 0.54,22.74 0.12,7.58 0.18,15.16 0.18,22.74 z"
       style="fill:none;stroke:#000000;stroke-width:5;stroke-linecap:round;stroke-linejoin:round;stroke-miterlimit:10;stroke-dasharray:none;stroke-opacity:1"
       transform="matrix(0.13333333,0,0,-0.13333333,0,460.30667)" />
    <path
       id="path5"
       d="m 2058.69,444.945 v 0"
       style="fill:none;stroke:#000000;stroke-width:30;stroke-linecap:round;stroke-linejoin:round;stroke-miterlimit:10;stroke-dasharray:none;stroke-opacity:1"
       transform="matrix(0.13333333,0,0,-0.13333333,0,460.30667)" />
    <path
       id="path6"
       d="m 1515.15,1369.37 v 0"
       style="fill:none;stroke:#000000;stroke-width:30;stroke-linecap:round;stroke-linejoin:round;stroke-miterlimit:10;stroke-dasharray:none;stroke-opacity:1"
       transform="matrix(0.13333333,0,0,-0.13333333,0,460.30667)" />
    <path
       id="path7"
       d="m 2058.69,3340.57 v 0"
       style="fill:none;stroke:#000000;stroke-width:30;stroke-linecap:round;stroke-linejoin:round;stroke-miterlimit:10;stroke-dasharray:none;stroke-opacity:1"
       transform="matrix(0.13333333,0,0,-0.13333333,0,460.30667)" />
    <path
       id="path8"
       d="m 793.516,2596.67 v 0"
       style="fill:none;stroke:#000000;stroke-width:30;stroke-linecap:round;stroke-linejoin:round;stroke-miterlimit:10;stroke-dasharray:none;stroke-opacity:1"
       transform="matrix(0.13333333,0,0,-0.13333333,0,460.30667)" />
    <path
       id="path9"
       d="M 2058.69,444.945 793.516,2596.67"
       style="fill:none;stroke:#000000;stroke-width:5;stroke-linecap:round;stroke-linejoin:round;stroke-miterlimit:10;stroke-dasharray:none;stroke-opacity:1"
       transform="matrix(0.13333333,0,0,-0.13333333,0,460.30667)" />
    <path
       id="path10"
       d="m 2340.95,2195.17 c 0,4.33 -0.03,8.65 -0.1,12.97 -0.07,4.33 -0.17,8.65 -0.3,12.97 -0.14,4.32 -0.31,8.64 -0.51,12.96 -0.21,4.32 -0.45,8.64 -0.72,12.96 -0.27,4.31 -0.57,8.63 -0.91,12.93 -0.34,4.32 -0.71,8.62 -1.12,12.93 -0.41,4.31 -0.85,8.61 -1.33,12.9 -0.47,4.3 -0.98,8.59 -1.52,12.89 -0.54,4.28 -1.12,8.57 -1.73,12.85 -0.6,4.28 -1.25,8.56 -1.92,12.83 -0.68,4.27 -1.39,8.53 -2.13,12.79 -0.75,4.26 -1.52,8.52 -2.34,12.76 -0.8,4.25 -1.65,8.49 -2.53,12.73 -0.87,4.23 -1.78,8.46 -2.72,12.68 -0.95,4.22 -1.93,8.43 -2.93,12.63 -1.01,4.21 -2.06,8.41 -3.13,12.59 -1.08,4.19 -2.19,8.37 -3.33,12.54 -1.14,4.17 -2.31,8.33 -3.52,12.49 -1.2,4.15 -2.44,8.29 -3.71,12.42 -1.27,4.14 -2.58,8.26 -3.91,12.37 -1.34,4.11 -2.71,8.21 -4.11,12.31 -1.4,4.09 -2.83,8.17 -4.3,12.24 -1.46,4.06 -2.96,8.12 -4.49,12.16 -1.53,4.05 -3.09,8.08 -4.68,12.1 -1.59,4.02 -3.21,8.03 -4.87,12.03 -1.65,3.99 -3.34,7.97 -5.05,11.94 -1.72,3.97 -3.47,7.92 -5.25,11.86 -1.78,3.95 -3.59,7.87 -5.43,11.79 -1.84,3.91 -3.72,7.8 -5.62,11.69 -1.9,3.88 -3.83,7.75 -5.79,11.6 -1.97,3.85 -3.96,7.69 -5.99,11.51 -2.02,3.82 -4.07,7.63 -6.16,11.42 -2.08,3.79 -4.19,7.56 -6.33,11.31 -2.15,3.76 -4.32,7.5 -6.52,11.22 -2.2,3.73 -4.43,7.43 -6.69,11.12 -2.26,3.68 -4.55,7.35 -6.86,11 -2.32,3.65 -4.67,7.29 -7.04,10.9 -2.37,3.61 -4.77,7.21 -7.2,10.78 -2.43,3.58 -4.89,7.14 -7.38,10.68 -2.49,3.53 -5,7.05 -7.54,10.55 -2.54,3.5 -5.11,6.98 -7.71,10.43 -2.6,3.46 -5.22,6.9 -7.87,10.32 -2.65,3.41 -5.32,6.81 -8.03,10.18 -2.7,3.38 -5.43,6.73 -8.19,10.06 -2.76,3.33 -5.54,6.64 -8.35,9.93 -2.8,3.29 -5.64,6.55 -8.5,9.8 -2.86,3.24 -5.74,6.46 -8.65,9.66 -2.91,3.2 -5.85,6.37 -8.81,9.53 -2.96,3.15 -5.94,6.28 -8.95,9.38 -3.01,3.11 -6.04,6.19 -9.1,9.25 -3.06,3.05 -6.14,6.09 -9.24,9.1 -3.11,3 -6.24,5.99 -9.39,8.95 -3.15,2.96 -6.33,5.89 -9.52,8.8 -3.2,2.92 -6.43,5.8 -9.67,8.66 -3.24,2.86 -6.51,5.69 -9.8,8.5 -3.28,2.81 -6.59,5.59 -9.92,8.35 -3.34,2.75 -6.69,5.48 -10.06,8.19 -3.38,2.7 -6.77,5.38 -10.19,8.03 -3.42,2.65 -6.86,5.27 -10.31,7.87 -3.46,2.59 -6.94,5.16 -10.44,7.71 -3.49,2.53 -7.01,5.05 -10.55,7.53 -3.54,2.49 -7.1,4.95 -10.67,7.38 -3.58,2.43 -7.17,4.84 -10.78,7.21 -3.62,2.37 -7.25,4.72 -10.9,7.04 -3.66,2.31 -7.32,4.6 -11.01,6.86 -3.69,2.26 -7.39,4.49 -11.11,6.69 -3.73,2.2 -7.47,4.37 -11.22,6.51 -3.76,2.15 -7.53,4.26 -11.32,6.34 -3.79,2.08 -7.59,4.14 -11.41,6.16 -3.82,2.03 -7.66,4.02 -11.52,5.98 -3.85,1.96 -7.71,3.9 -11.6,5.8 -3.88,1.9 -7.78,3.77 -11.69,5.61 -3.91,1.85 -7.84,3.66 -11.78,5.44 -3.94,1.77 -7.9,3.52 -11.87,5.24 -3.97,1.72 -7.95,3.4 -11.94,5.06 -3.99,1.65 -8,3.27 -12.02,4.87 -4.02,1.59 -8.06,3.15 -12.1,4.68 -4.05,1.53 -8.1,3.02 -12.17,4.49 -4.07,1.46 -8.15,2.89 -12.24,4.3 -4.09,1.4 -8.19,2.77 -12.3,4.1 -4.12,1.34 -8.24,2.64 -12.37,3.91 -4.13,1.27 -8.28,2.51 -12.43,3.72 -4.15,1.2 -8.31,2.38 -12.49,3.52 -4.17,1.14 -8.35,2.25 -12.53,3.33 -4.19,1.07 -8.39,2.11 -12.59,3.12 -4.21,1.01 -8.42,1.99 -12.64,2.93 -4.22,0.95 -8.45,1.86 -12.68,2.73 -4.23,0.88 -8.47,1.72 -12.72,2.53 -4.25,0.81 -8.5,1.59 -12.76,2.33 -4.26,0.75 -8.53,1.46 -12.8,2.13 -4.27,0.68 -8.54,1.32 -12.83,1.93 -4.28,0.61 -8.56,1.19 -12.85,1.73 -4.29,0.54 -8.59,1.05 -12.88,1.52 -4.3,0.47 -8.6,0.92 -12.91,1.32 -4.3,0.41 -8.61,0.78 -12.92,1.12 -4.31,0.34 -8.62,0.65 -12.94,0.92 -4.32,0.27 -8.63,0.51 -12.95,0.71 -4.32,0.21 -8.64,0.38 -12.96,0.51 -4.32,0.14 -8.65,0.24 -12.97,0.31 -4.32,0.07 -8.65,0.1 -12.97,0.1 -4.33,0 -8.65,-0.03 -12.97,-0.1 -4.33,-0.07 -8.65,-0.17 -12.97,-0.31 -4.32,-0.13 -8.64,-0.3 -12.96,-0.51 -4.32,-0.2 -8.64,-0.44 -12.96,-0.71 -4.31,-0.27 -8.62,-0.58 -12.93,-0.92 -4.32,-0.34 -8.62,-0.71 -12.93,-1.12 -4.3,-0.4 -8.61,-0.85 -12.9,-1.32 -4.3,-0.47 -8.59,-0.98 -12.88,-1.52 -4.29,-0.54 -8.58,-1.12 -12.86,-1.73 -4.28,-0.61 -8.56,-1.25 -12.83,-1.93 -4.27,-0.67 -8.53,-1.38 -12.79,-2.13 -4.26,-0.74 -8.52,-1.52 -12.76,-2.33 -4.25,-0.81 -8.49,-1.65 -12.73,-2.53 -4.23,-0.87 -8.46,-1.78 -12.68,-2.73 -4.21,-0.94 -8.43,-1.92 -12.63,-2.93 -4.21,-1.01 -8.41,-2.05 -12.59,-3.12 -4.19,-1.08 -8.37,-2.19 -12.54,-3.33 -4.17,-1.14 -8.33,-2.32 -12.49,-3.52 -4.15,-1.21 -8.29,-2.45 -12.42,-3.72 -4.13,-1.27 -8.26,-2.57 -12.37,-3.91 -4.11,-1.33 -8.21,-2.7 -12.3,-4.1 -4.1,-1.41 -8.18,-2.84 -12.25,-4.3 -4.06,-1.47 -8.12,-2.96 -12.16,-4.49 -4.05,-1.53 -8.08,-3.09 -12.1,-4.68 -4.02,-1.6 -8.03,-3.22 -12.02,-4.87 -4,-1.66 -7.98,-3.34 -11.95,-5.06 -3.97,-1.72 -7.92,-3.47 -11.86,-5.24 -3.94,-1.78 -7.87,-3.59 -11.78,-5.44 -3.91,-1.84 -7.81,-3.71 -11.7,-5.61 -3.88,-1.9 -7.75,-3.84 -11.6,-5.8 -3.85,-1.96 -7.69,-3.95 -11.51,-5.98 -3.82,-2.02 -7.63,-4.08 -11.42,-6.16 -3.79,-2.08 -7.56,-4.19 -11.31,-6.34 -3.76,-2.14 -7.5,-4.31 -11.22,-6.51 -3.73,-2.2 -7.43,-4.43 -11.12,-6.69 -3.68,-2.26 -7.35,-4.55 -11,-6.86 -3.65,-2.32 -7.28,-4.67 -10.9,-7.04 -3.61,-2.37 -7.21,-4.78 -10.78,-7.21 -3.58,-2.43 -7.14,-4.89 -10.68,-7.38 -3.53,-2.48 -7.05,-5 -10.55,-7.53 -3.5,-2.55 -6.98,-5.12 -10.43,-7.71 -3.46,-2.6 -6.9,-5.22 -10.32,-7.87 -3.41,-2.65 -6.81,-5.33 -10.18,-8.03 -3.375,-2.71 -6.73,-5.44 -10.062,-8.19 -3.332,-2.76 -6.641,-5.54 -9.93,-8.35 -3.285,-2.81 -6.551,-5.64 -9.797,-8.5 -3.242,-2.86 -6.465,-5.74 -9.66,-8.66 -3.199,-2.91 -6.375,-5.84 -9.527,-8.8 -3.153,-2.96 -6.281,-5.95 -9.387,-8.95 -3.102,-3.01 -6.184,-6.05 -9.242,-9.1 -3.059,-3.06 -6.09,-6.14 -9.102,-9.25 -3.008,-3.1 -5.992,-6.23 -8.953,-9.38 -2.957,-3.16 -5.894,-6.33 -8.805,-9.53 -2.91,-3.2 -5.792,-6.42 -8.652,-9.66 -2.859,-3.25 -5.695,-6.51 -8.504,-9.8 -2.808,-3.29 -5.59,-6.6 -8.347,-9.93 -2.754,-3.33 -5.485,-6.68 -8.188,-10.06 -2.703,-3.37 -5.379,-6.77 -8.031,-10.18 -2.649,-3.42 -5.274,-6.86 -7.871,-10.32 -2.594,-3.45 -5.164,-6.93 -7.703,-10.43 -2.543,-3.5 -5.059,-7.02 -7.543,-10.55 -2.489,-3.54 -4.946,-7.1 -7.375,-10.68 -2.43,-3.57 -4.832,-7.17 -7.207,-10.78 -2.375,-3.61 -4.719,-7.25 -7.036,-10.9 -2.32,-3.65 -4.605,-7.32 -6.867,-11 -2.258,-3.69 -4.488,-7.39 -6.687,-11.12 -2.203,-3.72 -4.375,-7.46 -6.516,-11.22 -2.144,-3.75 -4.258,-7.52 -6.34,-11.31 -2.082,-3.79 -4.136,-7.6 -6.16,-11.42 -2.023,-3.82 -4.015,-7.66 -5.98,-11.51 -1.961,-3.85 -3.895,-7.72 -5.797,-11.6 -1.903,-3.89 -3.774,-7.78 -5.613,-11.69 -1.844,-3.92 -3.653,-7.84 -5.434,-11.79 -1.777,-3.94 -3.527,-7.89 -5.242,-11.86 -1.719,-3.97 -3.403,-7.95 -5.059,-11.94 -1.656,-4 -3.277,-8.01 -4.871,-12.03 -1.59,-4.02 -3.152,-8.05 -4.68,-12.1 -1.527,-4.04 -3.023,-8.1 -4.488,-12.16 -1.465,-4.07 -2.898,-8.15 -4.301,-12.24 -1.398,-4.1 -2.765,-8.2 -4.101,-12.31 -1.34,-4.11 -2.641,-8.23 -3.914,-12.37 -1.27,-4.13 -2.508,-8.27 -3.715,-12.42 -1.207,-4.16 -2.383,-8.32 -3.524,-12.49 -1.14,-4.17 -2.246,-8.35 -3.324,-12.54 -1.074,-4.18 -2.117,-8.38 -3.125,-12.59 -1.012,-4.2 -1.988,-8.41 -2.93,-12.63 -0.945,-4.22 -1.855,-8.45 -2.73,-12.68 -0.875,-4.24 -1.719,-8.48 -2.531,-12.73 -0.809,-4.24 -1.586,-8.5 -2.328,-12.76 -0.746,-4.26 -1.457,-8.52 -2.133,-12.79 -0.676,-4.27 -1.317,-8.55 -1.926,-12.83 -0.609,-4.28 -1.187,-8.57 -1.727,-12.85 -0.542,-4.3 -1.05,-8.59 -1.527,-12.89 -0.473,-4.29 -0.914,-8.59 -1.32,-12.9 -0.406,-4.31 -0.781,-8.61 -1.121,-12.93 -0.34,-4.3 -0.645,-8.62 -0.914,-12.93 -0.274,-4.32 -0.512,-8.64 -0.715,-12.96 -0.203,-4.32 -0.371,-8.64 -0.508,-12.96 -0.137,-4.32 -0.238,-8.64 -0.305,-12.97 -0.07,-4.32 -0.101,-8.64 -0.101,-12.97 0,-4.32 0.031,-8.64 0.101,-12.97 0.067,-4.32 0.168,-8.65 0.305,-12.97 0.137,-4.32 0.305,-8.64 0.508,-12.96 0.203,-4.32 0.441,-8.63 0.715,-12.95 0.269,-4.32 0.574,-8.63 0.914,-12.94 0.34,-4.31 0.715,-8.62 1.121,-12.92 0.406,-4.31 0.847,-8.61 1.32,-12.91 0.477,-4.29 0.985,-8.59 1.527,-12.88 0.54,-4.29 1.118,-8.57 1.727,-12.85 0.609,-4.28 1.25,-8.56 1.926,-12.83 0.676,-4.27 1.387,-8.54 2.133,-12.79 0.742,-4.27 1.519,-8.52 2.328,-12.77 0.812,-4.24 1.656,-8.48 2.531,-12.72 0.875,-4.23 1.785,-8.46 2.73,-12.68 0.942,-4.22 1.918,-8.43 2.93,-12.64 1.008,-4.2 2.051,-8.4 3.125,-12.59 1.078,-4.18 2.184,-8.36 3.324,-12.53 1.141,-4.18 2.317,-8.34 3.524,-12.49 1.207,-4.15 2.445,-8.3 3.715,-12.43 1.273,-4.13 2.574,-8.25 3.914,-12.37 1.336,-4.1 2.703,-8.21 4.101,-12.3 1.403,-4.09 2.836,-8.17 4.301,-12.24 1.465,-4.06 2.961,-8.12 4.488,-12.17 1.528,-4.04 3.09,-8.07 4.68,-12.09 1.594,-4.03 3.215,-8.04 4.871,-12.03 1.656,-3.99 3.34,-7.97 5.059,-11.94 1.715,-3.97 3.465,-7.92 5.242,-11.87 1.781,-3.94 3.59,-7.86 5.434,-11.78 1.839,-3.91 3.71,-7.81 5.613,-11.69 1.902,-3.89 3.836,-7.75 5.797,-11.6 1.965,-3.86 3.957,-7.7 5.98,-11.52 2.024,-3.82 4.078,-7.62 6.16,-11.41 2.082,-3.79 4.196,-7.56 6.34,-11.32 2.141,-3.75 4.313,-7.49 6.516,-11.22 2.199,-3.72 4.429,-7.42 6.687,-11.11 2.262,-3.69 4.547,-7.35 6.867,-11.01 2.317,-3.64 4.661,-7.28 7.036,-10.89 2.375,-3.62 4.777,-7.21 7.207,-10.79 2.429,-3.57 4.886,-7.13 7.375,-10.67 2.484,-3.54 5,-7.06 7.543,-10.55 2.539,-3.5 5.109,-6.98 7.703,-10.44 2.597,-3.45 5.222,-6.89 7.871,-10.31 2.652,-3.42 5.328,-6.81 8.031,-10.19 2.703,-3.37 5.434,-6.72 8.188,-10.05 2.757,-3.34 5.539,-6.65 8.347,-9.93 2.809,-3.29 5.645,-6.56 8.504,-9.8 2.86,-3.24 5.742,-6.47 8.652,-9.67 2.911,-3.19 5.848,-6.37 8.805,-9.52 2.961,-3.15 5.945,-6.28 8.953,-9.39 3.012,-3.1 6.043,-6.18 9.102,-9.24 3.058,-3.06 6.14,-6.09 9.242,-9.1 3.106,-3.01 6.234,-5.99 9.387,-8.95 3.152,-2.96 6.328,-5.9 9.527,-8.81 3.195,-2.91 6.418,-5.79 9.66,-8.65 3.246,-2.86 6.512,-5.69 9.797,-8.5 3.289,-2.81 6.598,-5.59 9.93,-8.35 3.332,-2.75 6.687,-5.49 10.062,-8.19 3.37,-2.7 6.77,-5.38 10.18,-8.03 3.42,-2.65 6.86,-5.27 10.32,-7.87 3.45,-2.59 6.93,-5.16 10.43,-7.71 3.5,-2.54 7.02,-5.05 10.55,-7.54 3.54,-2.49 7.1,-4.94 10.68,-7.38 3.57,-2.43 7.17,-4.83 10.78,-7.2 3.62,-2.37 7.25,-4.72 10.9,-7.04 3.65,-2.31 7.32,-4.6 11,-6.86 3.69,-2.26 7.39,-4.49 11.12,-6.69 3.72,-2.2 7.46,-4.37 11.22,-6.52 3.75,-2.14 7.52,-4.25 11.31,-6.33 3.79,-2.09 7.6,-4.14 11.42,-6.16 3.82,-2.03 7.66,-4.02 11.51,-5.98 3.85,-1.97 7.72,-3.9 11.6,-5.8 3.89,-1.9 7.79,-3.78 11.7,-5.62 3.91,-1.84 7.84,-3.65 11.78,-5.43 3.94,-1.78 7.89,-3.53 11.86,-5.24 3.97,-1.72 7.95,-3.41 11.95,-5.06 3.99,-1.66 8,-3.28 12.02,-4.87 4.02,-1.59 8.05,-3.15 12.1,-4.68 4.04,-1.53 8.1,-3.03 12.16,-4.49 4.07,-1.47 8.15,-2.9 12.25,-4.3 4.09,-1.4 8.19,-2.77 12.3,-4.1 4.11,-1.34 8.24,-2.65 12.37,-3.91 4.13,-1.28 8.27,-2.52 12.42,-3.72 4.16,-1.21 8.32,-2.38 12.49,-3.52 4.17,-1.14 8.35,-2.25 12.54,-3.33 4.18,-1.07 8.38,-2.11 12.59,-3.13 4.2,-1 8.42,-1.98 12.63,-2.92 4.22,-0.95 8.45,-1.86 12.68,-2.73 4.24,-0.88 8.48,-1.73 12.73,-2.53 4.24,-0.82 8.5,-1.59 12.76,-2.34 4.26,-0.74 8.52,-1.45 12.79,-2.12 4.27,-0.68 8.55,-1.33 12.83,-1.93 4.28,-0.61 8.57,-1.19 12.86,-1.73 4.29,-0.54 8.58,-1.05 12.88,-1.52 4.29,-0.48 8.6,-0.92 12.9,-1.33 4.31,-0.4 8.61,-0.78 12.93,-1.12 4.31,-0.34 8.62,-0.64 12.93,-0.91 4.32,-0.27 8.64,-0.51 12.96,-0.71 4.32,-0.21 8.64,-0.38 12.96,-0.51 4.32,-0.14 8.64,-0.24 12.97,-0.31 4.32,-0.07 8.64,-0.1 12.97,-0.1 4.32,0 8.65,0.03 12.97,0.1 4.32,0.07 8.65,0.17 12.97,0.31 4.32,0.13 8.64,0.3 12.96,0.51 4.32,0.2 8.63,0.44 12.95,0.71 4.32,0.27 8.63,0.57 12.94,0.91 4.31,0.34 8.62,0.72 12.92,1.12 4.31,0.41 8.61,0.85 12.91,1.33 4.29,0.47 8.59,0.98 12.88,1.52 4.29,0.54 8.57,1.12 12.85,1.73 4.29,0.6 8.56,1.25 12.83,1.93 4.27,0.67 8.54,1.38 12.8,2.12 4.26,0.75 8.51,1.52 12.76,2.34 4.25,0.8 8.49,1.65 12.72,2.53 4.23,0.87 8.46,1.78 12.68,2.73 4.22,0.94 8.43,1.92 12.64,2.92 4.2,1.02 8.4,2.06 12.59,3.13 4.18,1.08 8.36,2.19 12.53,3.33 4.18,1.14 8.34,2.31 12.49,3.52 4.15,1.2 8.3,2.44 12.43,3.72 4.13,1.26 8.25,2.57 12.37,3.91 4.11,1.33 8.21,2.7 12.3,4.1 4.09,1.4 8.17,2.83 12.24,4.3 4.07,1.46 8.12,2.96 12.17,4.49 4.04,1.53 8.08,3.09 12.1,4.68 4.02,1.59 8.03,3.21 12.02,4.87 3.99,1.65 7.97,3.34 11.94,5.06 3.97,1.71 7.93,3.46 11.87,5.24 3.94,1.78 7.87,3.59 11.78,5.43 3.91,1.84 7.81,3.72 11.69,5.62 3.89,1.9 7.75,3.83 11.6,5.8 3.86,1.96 7.7,3.95 11.52,5.98 3.82,2.02 7.62,4.07 11.41,6.16 3.79,2.08 7.56,4.19 11.32,6.33 3.75,2.15 7.49,4.32 11.22,6.52 3.72,2.2 7.42,4.43 11.11,6.69 3.69,2.26 7.35,4.55 11.01,6.86 3.65,2.32 7.28,4.67 10.9,7.04 3.61,2.37 7.2,4.77 10.78,7.2 3.57,2.44 7.13,4.89 10.67,7.38 3.54,2.49 7.06,5 10.55,7.54 3.5,2.55 6.98,5.12 10.44,7.71 3.45,2.6 6.89,5.22 10.31,7.87 3.42,2.65 6.81,5.33 10.19,8.03 3.37,2.7 6.72,5.44 10.06,8.19 3.33,2.76 6.64,5.54 9.92,8.35 3.29,2.81 6.56,5.64 9.8,8.5 3.24,2.86 6.47,5.74 9.67,8.65 3.19,2.91 6.37,5.85 9.52,8.81 3.15,2.96 6.28,5.94 9.39,8.95 3.1,3.01 6.18,6.04 9.24,9.1 3.06,3.06 6.09,6.14 9.1,9.24 3.01,3.11 5.99,6.24 8.95,9.39 2.96,3.15 5.9,6.33 8.81,9.52 2.91,3.2 5.79,6.43 8.65,9.67 2.86,3.24 5.7,6.51 8.5,9.8 2.81,3.28 5.59,6.59 8.35,9.93 2.76,3.33 5.49,6.68 8.19,10.05 2.71,3.38 5.38,6.77 8.03,10.19 2.65,3.42 5.27,6.86 7.87,10.31 2.6,3.46 5.17,6.94 7.71,10.44 2.54,3.49 5.05,7.01 7.54,10.55 2.49,3.54 4.95,7.1 7.38,10.67 2.43,3.58 4.83,7.17 7.2,10.79 2.37,3.61 4.72,7.25 7.04,10.89 2.31,3.66 4.6,7.32 6.86,11.01 2.26,3.69 4.49,7.39 6.69,11.11 2.2,3.73 4.37,7.47 6.52,11.22 2.14,3.76 4.25,7.53 6.33,11.32 2.09,3.79 4.14,7.59 6.16,11.41 2.03,3.82 4.02,7.66 5.99,11.52 1.96,3.85 3.89,7.71 5.79,11.6 1.9,3.88 3.78,7.78 5.62,11.69 1.84,3.92 3.65,7.84 5.43,11.78 1.78,3.95 3.53,7.9 5.25,11.87 1.71,3.97 3.4,7.95 5.05,11.94 1.66,3.99 3.28,8 4.87,12.03 1.59,4.02 3.15,8.05 4.68,12.09 1.53,4.05 3.03,8.11 4.49,12.17 1.47,4.07 2.9,8.15 4.3,12.24 1.4,4.09 2.77,8.2 4.11,12.3 1.33,4.12 2.64,8.24 3.91,12.37 1.27,4.13 2.51,8.28 3.71,12.43 1.21,4.15 2.38,8.31 3.52,12.49 1.14,4.17 2.25,8.35 3.33,12.53 1.07,4.19 2.12,8.39 3.13,12.59 1,4.21 1.98,8.42 2.93,12.64 0.94,4.22 1.85,8.45 2.72,12.68 0.88,4.24 1.73,8.48 2.53,12.72 0.82,4.25 1.59,8.5 2.34,12.77 0.74,4.25 1.45,8.52 2.13,12.79 0.67,4.27 1.32,8.55 1.92,12.83 0.61,4.28 1.19,8.56 1.73,12.85 0.54,4.29 1.05,8.59 1.52,12.88 0.48,4.3 0.92,8.6 1.33,12.91 0.41,4.3 0.78,8.61 1.12,12.92 0.34,4.31 0.64,8.62 0.91,12.94 0.27,4.32 0.51,8.63 0.72,12.95 0.2,4.32 0.37,8.64 0.51,12.96 0.13,4.32 0.23,8.65 0.3,12.97 0.07,4.33 0.1,8.65 0.1,12.97 z"
       style="fill:none;stroke:#000000;stroke-width:5;stroke-linecap:round;stroke-linejoin:round;stroke-miterlimit:10;stroke-dasharray:39.913, 39.913;stroke-dashoffset:0;stroke-opacity:1"
       transform="matrix(0.13333333,0,0,-0.13333333,0,460.30667)" />
    <path
       id="path11"
       d="m 1316.66,649.555 v 0"
       style="fill:none;stroke:#000000;stroke-width:30;stroke-linecap:round;stroke-linejoin:round;stroke-miterlimit:10;stroke-dasharray:none;stroke-opacity:1"
       transform="matrix(0.13333333,0,0,-0.13333333,0,460.30667)" />
    <path
       id="path12"
       d="m 1515.15,982.094 v 0"
       style="fill:none;stroke:#000000;stroke-width:30;stroke-linecap:round;stroke-linejoin:round;stroke-miterlimit:10;stroke-dasharray:none;stroke-opacity:1"
       transform="matrix(0.13333333,0,0,-0.13333333,0,460.30667)" />
    <path
       id="path13"
       d="m 1902.42,982.094 c 0,2.031 -0.02,4.058 -0.05,6.086 -0.03,2.027 -0.08,4.054 -0.14,6.082 -0.07,2.023 -0.14,4.051 -0.24,6.078 -0.1,2.02 -0.2,4.05 -0.33,6.07 -0.13,2.03 -0.27,4.05 -0.43,6.07 -0.16,2.02 -0.34,4.04 -0.53,6.06 -0.19,2.02 -0.4,4.04 -0.62,6.05 -0.22,2.02 -0.46,4.03 -0.71,6.04 -0.26,2.01 -0.53,4.03 -0.82,6.03 -0.28,2.01 -0.58,4.02 -0.9,6.02 -0.31,2 -0.65,4 -1,6 -0.35,2 -0.71,3.99 -1.09,5.98 -0.38,2 -0.77,3.98 -1.18,5.97 -0.42,1.98 -0.84,3.97 -1.29,5.95 -0.44,1.97 -0.9,3.95 -1.37,5.92 -0.47,1.97 -0.96,3.94 -1.47,5.91 -0.5,1.96 -1.02,3.92 -1.55,5.88 -0.54,1.95 -1.09,3.91 -1.66,5.85 -0.56,1.95 -1.15,3.89 -1.74,5.83 -0.6,1.94 -1.21,3.87 -1.84,5.8 -0.62,1.93 -1.26,3.85 -1.92,5.77 -0.66,1.92 -1.33,3.83 -2.02,5.74 -0.68,1.91 -1.38,3.81 -2.1,5.71 -0.72,1.89 -1.45,3.78 -2.2,5.67 -0.74,1.89 -1.51,3.77 -2.28,5.64 -0.78,1.87 -1.56,3.74 -2.37,5.6 -0.81,1.86 -1.62,3.72 -2.46,5.56 -0.84,1.85 -1.68,3.69 -2.55,5.53 -0.86,1.83 -1.74,3.66 -2.63,5.48 -0.89,1.82 -1.8,3.64 -2.72,5.44 -0.92,1.81 -1.85,3.61 -2.8,5.4 -0.95,1.8 -1.92,3.58 -2.89,5.35 -0.98,1.78 -1.97,3.55 -2.98,5.31 -1,1.76 -2.02,3.52 -3.05,5.26 -1.03,1.75 -2.08,3.48 -3.14,5.22 -1.06,1.72 -2.13,3.44 -3.22,5.16 -1.08,1.71 -2.18,3.41 -3.3,5.11 -1.11,1.69 -2.24,3.38 -3.38,5.05 -1.14,1.68 -2.29,3.35 -3.45,5.01 -1.17,1.66 -2.35,3.31 -3.54,4.95 -1.19,1.64 -2.4,3.27 -3.62,4.89 -1.21,1.62 -2.45,3.24 -3.69,4.84 -1.24,1.6 -2.49,3.19 -3.76,4.77 -1.27,1.59 -2.55,3.16 -3.84,4.72 -1.3,1.57 -2.6,3.12 -3.92,4.66 -1.31,1.54 -2.65,3.07 -3.99,4.59 -1.34,1.52 -2.69,3.03 -4.05,4.53 -1.37,1.5 -2.75,2.99 -4.13,4.47 -1.39,1.48 -2.79,2.95 -4.2,4.4 -1.41,1.46 -2.83,2.9 -4.27,4.34 -1.43,1.43 -2.88,2.86 -4.33,4.27 -1.46,1.41 -2.93,2.81 -4.41,4.2 -1.47,1.38 -2.96,2.76 -4.46,4.13 -1.5,1.36 -3.01,2.71 -4.54,4.05 -1.52,1.34 -3.05,2.67 -4.59,3.99 -1.54,1.32 -3.09,2.62 -4.66,3.92 -1.56,1.29 -3.13,2.57 -4.71,3.84 -1.59,1.26 -3.18,2.52 -4.78,3.76 -1.6,1.24 -3.21,2.47 -4.84,3.69 -1.62,1.22 -3.25,2.42 -4.89,3.62 -1.64,1.19 -3.29,2.37 -4.95,3.53 -1.66,1.17 -3.33,2.32 -5,3.46 -1.68,1.14 -3.37,2.27 -5.06,3.38 -1.7,1.11 -3.4,2.21 -5.11,3.3 -1.71,1.09 -3.43,2.16 -5.16,3.22 -1.73,1.06 -3.47,2.11 -5.21,3.14 -1.75,1.03 -3.5,2.05 -5.27,3.05 -1.75,1.01 -3.52,2 -5.3,2.97 -1.78,0.98 -3.56,1.95 -5.36,2.9 -1.79,0.94 -3.59,1.88 -5.4,2.8 -1.8,0.92 -3.62,1.82 -5.44,2.72 -1.82,0.89 -3.64,1.77 -5.48,2.63 -1.83,0.87 -3.68,1.71 -5.52,2.55 -1.85,0.83 -3.71,1.65 -5.57,2.46 -1.86,0.8 -3.73,1.59 -5.6,2.37 -1.87,0.77 -3.75,1.54 -5.64,2.28 -1.88,0.75 -3.78,1.48 -5.67,2.2 -1.9,0.72 -3.8,1.42 -5.71,2.1 -1.91,0.69 -3.82,1.36 -5.74,2.02 -1.92,0.65 -3.84,1.3 -5.77,1.92 -1.93,0.63 -3.86,1.24 -5.8,1.84 -1.94,0.59 -3.88,1.18 -5.83,1.74 -1.94,0.57 -3.9,1.12 -5.85,1.65 -1.96,0.54 -3.92,1.06 -5.88,1.56 -1.96,0.51 -3.93,1 -5.91,1.47 -1.97,0.47 -3.94,0.93 -5.92,1.37 -1.98,0.44 -3.96,0.87 -5.95,1.28 -1.98,0.41 -3.97,0.81 -5.97,1.19 -1.99,0.38 -3.98,0.74 -5.98,1.09 -2,0.35 -4,0.68 -6,1 -2,0.32 -4.01,0.62 -6.02,0.9 -2,0.29 -4.01,0.56 -6.03,0.81 -2.01,0.26 -4.02,0.5 -6.04,0.72 -2.01,0.22 -4.03,0.43 -6.05,0.62 -2.02,0.19 -4.04,0.37 -6.06,0.53 -2.02,0.15 -4.04,0.3 -6.07,0.43 -2.02,0.12 -4.05,0.23 -6.07,0.33 -2.03,0.1 -4.05,0.17 -6.08,0.24 -2.02,0.06 -4.05,0.11 -6.08,0.14 -2.03,0.03 -4.05,0.05 -6.08,0.05 -2.03,0 -4.06,-0.02 -6.09,-0.05 -2.02,-0.03 -4.05,-0.08 -6.08,-0.14 -2.02,-0.07 -4.05,-0.14 -6.07,-0.24 -2.03,-0.1 -4.05,-0.21 -6.08,-0.33 -2.03,-0.13 -4.04,-0.28 -6.07,-0.43 -2.02,-0.16 -4.04,-0.34 -6.06,-0.53 -2.02,-0.19 -4.04,-0.4 -6.05,-0.62 -2.01,-0.22 -4.03,-0.46 -6.04,-0.72 -2.01,-0.25 -4.02,-0.52 -6.03,-0.81 -2.01,-0.28 -4.01,-0.58 -6.01,-0.9 -2.01,-0.32 -4.01,-0.65 -6.01,-1 -1.99,-0.35 -3.99,-0.71 -5.98,-1.09 -1.99,-0.38 -3.98,-0.78 -5.97,-1.19 -1.98,-0.41 -3.97,-0.84 -5.94,-1.28 -1.98,-0.44 -3.96,-0.9 -5.93,-1.37 -1.97,-0.47 -3.94,-0.96 -5.9,-1.47 -1.97,-0.5 -3.93,-1.02 -5.88,-1.56 -1.96,-0.53 -3.91,-1.08 -5.86,-1.65 -1.94,-0.56 -3.89,-1.15 -5.83,-1.74 -1.93,-0.6 -3.87,-1.21 -5.8,-1.84 -1.92,-0.62 -3.85,-1.27 -5.77,-1.92 -1.91,-0.66 -3.83,-1.33 -5.74,-2.02 -1.91,-0.68 -3.81,-1.38 -5.7,-2.1 -1.9,-0.72 -3.79,-1.45 -5.68,-2.2 -1.88,-0.74 -3.76,-1.51 -5.63,-2.28 -1.88,-0.78 -3.75,-1.57 -5.61,-2.37 -1.86,-0.81 -3.71,-1.63 -5.56,-2.46 -1.85,-0.84 -3.69,-1.68 -5.53,-2.55 -1.83,-0.86 -3.66,-1.74 -5.48,-2.63 -1.82,-0.9 -3.63,-1.8 -5.44,-2.72 -1.81,-0.92 -3.61,-1.86 -5.4,-2.8 -1.79,-0.95 -3.57,-1.92 -5.35,-2.9 -1.78,-0.97 -3.55,-1.96 -5.31,-2.97 -1.76,-1 -3.52,-2.02 -5.26,-3.05 -1.74,-1.03 -3.48,-2.08 -5.21,-3.14 -1.73,-1.06 -3.45,-2.13 -5.16,-3.22 -1.71,-1.09 -3.42,-2.19 -5.11,-3.3 -1.7,-1.11 -3.39,-2.24 -5.06,-3.38 -1.68,-1.14 -3.35,-2.29 -5.01,-3.46 -1.66,-1.16 -3.3,-2.34 -4.94,-3.53 -1.64,-1.2 -3.28,-2.4 -4.9,-3.62 -1.62,-1.22 -3.23,-2.45 -4.83,-3.69 -1.61,-1.24 -3.2,-2.5 -4.78,-3.76 -1.58,-1.27 -3.16,-2.55 -4.72,-3.84 -1.56,-1.3 -3.11,-2.6 -4.66,-3.92 -1.54,-1.32 -3.07,-2.65 -4.59,-3.99 -1.52,-1.34 -3.03,-2.69 -4.53,-4.05 -1.5,-1.37 -2.99,-2.75 -4.47,-4.13 -1.48,-1.39 -2.95,-2.79 -4.4,-4.2 -1.46,-1.41 -2.9,-2.84 -4.34,-4.27 -1.43,-1.44 -2.85,-2.88 -4.26,-4.34 -1.41,-1.45 -2.81,-2.92 -4.2,-4.4 -1.39,-1.48 -2.77,-2.97 -4.13,-4.47 -1.37,-1.5 -2.72,-3.01 -4.06,-4.53 -1.34,-1.52 -2.67,-3.05 -3.99,-4.59 -1.31,-1.54 -2.62,-3.09 -3.91,-4.66 -1.29,-1.56 -2.57,-3.13 -3.84,-4.72 -1.27,-1.58 -2.53,-3.17 -3.77,-4.77 -1.24,-1.6 -2.47,-3.22 -3.69,-4.84 -1.22,-1.62 -2.42,-3.25 -3.61,-4.89 -1.2,-1.64 -2.38,-3.29 -3.54,-4.95 -1.17,-1.66 -2.32,-3.33 -3.46,-5.01 -1.14,-1.67 -2.27,-3.36 -3.38,-5.05 -1.11,-1.7 -2.21,-3.4 -3.3,-5.11 -1.09,-1.72 -2.16,-3.44 -3.22,-5.16 -1.06,-1.74 -2.1,-3.47 -3.14,-5.22 -1.03,-1.74 -2.05,-3.5 -3.05,-5.26 -1,-1.76 -2,-3.53 -2.97,-5.31 -0.98,-1.77 -1.94,-3.55 -2.89,-5.35 -0.95,-1.79 -1.89,-3.59 -2.8,-5.4 -0.93,-1.8 -1.83,-3.62 -2.72,-5.44 -0.9,-1.82 -1.77,-3.65 -2.64,-5.48 -0.86,-1.84 -1.71,-3.68 -2.54,-5.53 -0.84,-1.84 -1.66,-3.7 -2.46,-5.56 -0.81,-1.86 -1.6,-3.73 -2.37,-5.6 -0.78,-1.87 -1.54,-3.75 -2.29,-5.64 -0.75,-1.89 -1.48,-3.78 -2.19,-5.67 -0.72,-1.9 -1.42,-3.8 -2.11,-5.71 -0.69,-1.91 -1.36,-3.82 -2.02,-5.74 -0.65,-1.92 -1.29,-3.84 -1.92,-5.77 -0.63,-1.93 -1.24,-3.86 -1.83,-5.8 -0.6,-1.94 -1.18,-3.88 -1.75,-5.83 -0.56,-1.94 -1.11,-3.9 -1.65,-5.85 -0.53,-1.96 -1.05,-3.92 -1.56,-5.88 -0.5,-1.97 -0.99,-3.94 -1.47,-5.91 -0.47,-1.97 -0.93,-3.95 -1.37,-5.92 -0.44,-1.98 -0.87,-3.97 -1.28,-5.95 -0.41,-1.99 -0.81,-3.97 -1.19,-5.97 -0.37,-1.99 -0.74,-3.98 -1.09,-5.98 -0.35,-2 -0.68,-4 -1,-6 -0.32,-2 -0.62,-4.01 -0.9,-6.02 -0.29,-2 -0.56,-4.02 -0.81,-6.03 -0.25,-2.01 -0.49,-4.02 -0.72,-6.04 -0.22,-2.01 -0.42,-4.03 -0.62,-6.05 -0.19,-2.02 -0.36,-4.04 -0.52,-6.06 -0.16,-2.02 -0.3,-4.04 -0.43,-6.07 -0.13,-2.02 -0.24,-4.05 -0.34,-6.07 -0.09,-2.027 -0.17,-4.055 -0.23,-6.078 -0.07,-2.028 -0.12,-4.055 -0.15,-6.082 -0.03,-2.028 -0.04,-4.055 -0.04,-6.086 0,-2.028 0.01,-4.055 0.04,-6.082 0.03,-2.028 0.08,-4.055 0.15,-6.082 0.06,-2.028 0.14,-4.051 0.23,-6.078 0.1,-2.024 0.21,-4.051 0.34,-6.075 0.13,-2.023 0.27,-4.047 0.43,-6.066 0.16,-2.023 0.33,-4.043 0.52,-6.063 0.2,-2.015 0.4,-4.035 0.62,-6.05 0.23,-2.016 0.47,-4.028 0.72,-6.039 0.25,-2.012 0.52,-4.024 0.81,-6.032 0.28,-2.007 0.58,-4.011 0.9,-6.015 0.32,-2.004 0.65,-4.004 1,-6 0.35,-1.996 0.72,-3.992 1.09,-5.985 0.38,-1.992 0.78,-3.98 1.19,-5.964 0.41,-1.989 0.84,-3.969 1.28,-5.95 0.44,-1.976 0.9,-3.953 1.37,-5.925 0.48,-1.973 0.97,-3.938 1.47,-5.903 0.51,-1.965 1.03,-3.926 1.56,-5.879 0.54,-1.957 1.09,-3.91 1.65,-5.855 0.57,-1.949 1.15,-3.891 1.75,-5.828 0.59,-1.938 1.2,-3.871 1.83,-5.801 0.63,-1.93 1.27,-3.852 1.92,-5.77 0.66,-1.918 1.33,-3.832 2.02,-5.742 0.69,-1.906 1.39,-3.808 2.11,-5.707 0.71,-1.894 1.44,-3.785 2.19,-5.672 0.75,-1.886 1.51,-3.765 2.29,-5.64 0.77,-1.871 1.56,-3.739 2.37,-5.602 0.8,-1.859 1.62,-3.715 2.46,-5.562 0.83,-1.848 1.68,-3.688 2.54,-5.524 0.87,-1.836 1.74,-3.664 2.64,-5.484 0.89,-1.821 1.79,-3.637 2.72,-5.442 0.91,-1.808 1.85,-3.605 2.8,-5.398 0.95,-1.793 1.91,-3.578 2.89,-5.356 0.97,-1.773 1.97,-3.543 2.97,-5.304 1,-1.762 2.02,-3.516 3.05,-5.262 1.04,-1.746 2.08,-3.48 3.14,-5.211 1.06,-1.73 2.13,-3.449 3.22,-5.16 1.09,-1.715 2.19,-3.418 3.3,-5.113 1.11,-1.696 2.24,-3.379 3.38,-5.059 1.14,-1.676 2.29,-3.344 3.46,-5.004 1.16,-1.656 2.34,-3.308 3.54,-4.949 1.19,-1.641 2.39,-3.27 3.61,-4.891 1.22,-1.621 2.45,-3.234 3.69,-4.836 1.24,-1.605 2.5,-3.195 3.77,-4.777 1.27,-1.582 2.55,-3.156 3.84,-4.719 1.29,-1.562 2.6,-3.113 3.91,-4.656 1.32,-1.543 2.65,-3.074 3.99,-4.594 1.34,-1.523 2.69,-3.031 4.06,-4.531 1.36,-1.5 2.74,-2.988 4.13,-4.469 1.39,-1.476 2.79,-2.945 4.2,-4.402 1.41,-1.453 2.83,-2.898 4.26,-4.332 1.44,-1.438 2.88,-2.859 4.34,-4.27 1.45,-1.41 2.92,-2.812 4.4,-4.199 1.48,-1.387 2.97,-2.765 4.47,-4.129 1.5,-1.363 3.01,-2.718 4.53,-4.058 1.52,-1.34 3.05,-2.668 4.59,-3.989 1.55,-1.316 3.1,-2.621 4.66,-3.914 1.56,-1.293 3.14,-2.57 4.72,-3.84 1.58,-1.265 3.17,-2.523 4.78,-3.765 1.6,-1.242 3.21,-2.473 4.83,-3.692 1.62,-1.214 3.26,-2.421 4.9,-3.613 1.64,-1.191 3.28,-2.371 4.94,-3.535 1.66,-1.168 3.33,-2.32 5.01,-3.461 1.67,-1.141 3.36,-2.266 5.06,-3.379 1.69,-1.113 3.4,-2.215 5.11,-3.301 1.71,-1.086 3.43,-2.16 5.16,-3.218 1.73,-1.059 3.47,-2.106 5.21,-3.137 1.74,-1.031 3.5,-2.051 5.26,-3.055 1.76,-1.008 3.53,-1.996 5.31,-2.972 1.78,-0.977 3.56,-1.942 5.35,-2.891 1.79,-0.949 3.59,-1.883 5.4,-2.805 1.81,-0.918 3.62,-1.824 5.44,-2.718 1.82,-0.891 3.65,-1.77 5.48,-2.633 1.84,-0.864 3.68,-1.711 5.53,-2.547 1.85,-0.832 3.7,-1.653 5.56,-2.457 1.86,-0.809 3.73,-1.598 5.61,-2.375 1.87,-0.774 3.75,-1.535 5.63,-2.281 1.89,-0.747 3.78,-1.481 5.68,-2.196 1.89,-0.719 3.79,-1.418 5.7,-2.105 1.91,-0.688 3.83,-1.36 5.74,-2.016 1.92,-0.656 3.85,-1.301 5.77,-1.926 1.93,-0.625 3.87,-1.238 5.8,-1.836 1.94,-0.593 3.89,-1.175 5.83,-1.742 1.95,-0.566 3.9,-1.117 5.86,-1.652 1.95,-0.535 3.91,-1.055 5.88,-1.559 1.96,-0.504 3.93,-0.992 5.9,-1.465 1.97,-0.472 3.95,-0.933 5.93,-1.375 1.97,-0.441 3.96,-0.867 5.94,-1.281 1.99,-0.41 3.98,-0.804 5.97,-1.183 1.99,-0.383 3.99,-0.746 5.98,-1.094 2,-0.348 4,-0.684 6.01,-1 2,-0.317 4,-0.617 6.01,-0.902 2.01,-0.286 4.02,-0.559 6.03,-0.813 2.01,-0.254 4.03,-0.492 6.04,-0.715 2.01,-0.222 4.03,-0.43 6.05,-0.617 2.02,-0.191 4.04,-0.367 6.06,-0.527 2.03,-0.161 4.04,-0.301 6.07,-0.43 2.03,-0.125 4.05,-0.238 6.08,-0.332 2.02,-0.098 4.05,-0.176 6.07,-0.238 2.03,-0.067 4.06,-0.114 6.08,-0.145 2.03,-0.031 4.06,-0.047 6.09,-0.047 2.03,0 4.05,0.016 6.08,0.047 2.03,0.031 4.06,0.078 6.08,0.145 2.03,0.062 4.05,0.14 6.08,0.238 2.02,0.094 4.05,0.207 6.07,0.332 2.03,0.129 4.05,0.269 6.07,0.43 2.02,0.16 4.04,0.336 6.06,0.527 2.02,0.187 4.04,0.395 6.05,0.617 2.02,0.223 4.03,0.461 6.04,0.715 2.02,0.254 4.03,0.527 6.03,0.813 2.01,0.285 4.02,0.585 6.02,0.902 2,0.316 4,0.652 6,1 2,0.348 3.99,0.711 5.98,1.094 2,0.379 3.99,0.773 5.97,1.183 1.99,0.414 3.97,0.84 5.95,1.281 1.98,0.442 3.95,0.903 5.92,1.375 1.98,0.473 3.95,0.961 5.91,1.465 1.96,0.504 3.92,1.024 5.88,1.559 1.95,0.535 3.91,1.086 5.85,1.652 1.95,0.567 3.89,1.149 5.83,1.742 1.94,0.598 3.87,1.211 5.8,1.836 1.93,0.625 3.85,1.27 5.77,1.926 1.92,0.656 3.83,1.328 5.74,2.016 1.91,0.687 3.81,1.386 5.71,2.105 1.89,0.715 3.79,1.449 5.67,2.196 1.89,0.746 3.77,1.507 5.64,2.281 1.87,0.777 3.74,1.566 5.6,2.375 1.86,0.804 3.72,1.625 5.57,2.457 1.84,0.836 3.69,1.683 5.52,2.547 1.84,0.863 3.66,1.742 5.48,2.633 1.82,0.894 3.64,1.8 5.44,2.718 1.81,0.922 3.61,1.856 5.4,2.805 1.8,0.949 3.58,1.914 5.36,2.891 1.78,0.976 3.55,1.964 5.3,2.972 1.77,1.004 3.52,2.024 5.27,3.055 1.74,1.031 3.48,2.078 5.21,3.137 1.73,1.058 3.45,2.132 5.16,3.218 1.71,1.086 3.41,2.188 5.11,3.301 1.69,1.113 3.38,2.238 5.06,3.379 1.67,1.141 3.34,2.293 5,3.461 1.66,1.164 3.31,2.344 4.95,3.535 1.64,1.192 3.27,2.399 4.89,3.613 1.63,1.219 3.24,2.45 4.84,3.692 1.6,1.242 3.19,2.5 4.78,3.765 1.58,1.27 3.15,2.547 4.71,3.84 1.57,1.293 3.12,2.598 4.66,3.914 1.54,1.321 3.07,2.649 4.59,3.989 1.53,1.34 3.04,2.695 4.54,4.058 1.5,1.364 2.99,2.742 4.46,4.129 1.48,1.387 2.95,2.789 4.41,4.199 1.45,1.411 2.9,2.832 4.33,4.27 1.44,1.434 2.86,2.879 4.27,4.332 1.41,1.457 2.81,2.926 4.2,4.402 1.38,1.481 2.76,2.969 4.13,4.469 1.36,1.5 2.71,3.008 4.05,4.531 1.34,1.52 2.68,3.051 3.99,4.594 1.32,1.543 2.62,3.094 3.92,4.656 1.29,1.563 2.57,3.137 3.84,4.719 1.27,1.582 2.52,3.172 3.76,4.777 1.24,1.602 2.48,3.215 3.69,4.836 1.22,1.621 2.43,3.25 3.62,4.891 1.19,1.641 2.37,3.293 3.54,4.949 1.16,1.66 2.31,3.328 3.45,5.004 1.14,1.68 2.27,3.363 3.38,5.059 1.12,1.695 2.22,3.398 3.3,5.113 1.09,1.711 2.16,3.43 3.22,5.16 1.06,1.731 2.11,3.465 3.14,5.211 1.03,1.746 2.05,3.5 3.05,5.262 1.01,1.761 2,3.531 2.98,5.304 0.97,1.778 1.94,3.563 2.89,5.356 0.95,1.793 1.88,3.59 2.8,5.398 0.92,1.805 1.83,3.621 2.72,5.442 0.89,1.82 1.77,3.648 2.63,5.484 0.87,1.836 1.71,3.676 2.55,5.524 0.84,1.847 1.65,3.703 2.46,5.562 0.81,1.863 1.59,3.731 2.37,5.602 0.77,1.875 1.54,3.754 2.28,5.64 0.75,1.887 1.48,3.778 2.2,5.672 0.72,1.899 1.42,3.801 2.1,5.707 0.69,1.91 1.36,3.824 2.02,5.742 0.66,1.918 1.3,3.84 1.92,5.77 0.63,1.93 1.24,3.863 1.84,5.801 0.59,1.937 1.18,3.879 1.74,5.828 0.57,1.945 1.12,3.898 1.66,5.855 0.53,1.953 1.05,3.914 1.55,5.879 0.51,1.965 1,3.93 1.47,5.903 0.47,1.972 0.93,3.949 1.37,5.925 0.45,1.981 0.87,3.961 1.29,5.95 0.41,1.984 0.8,3.972 1.18,5.964 0.38,1.993 0.74,3.989 1.09,5.985 0.35,1.996 0.69,3.996 1,6 0.32,2.004 0.62,4.008 0.9,6.015 0.29,2.008 0.56,4.02 0.82,6.032 0.25,2.011 0.49,4.023 0.71,6.039 0.22,2.015 0.43,4.035 0.62,6.05 0.19,2.02 0.37,4.04 0.53,6.063 0.16,2.019 0.3,4.043 0.43,6.066 0.13,2.024 0.23,4.051 0.33,6.075 0.1,2.027 0.17,4.05 0.24,6.078 0.06,2.027 0.11,4.054 0.14,6.082 0.03,2.027 0.05,4.054 0.05,6.082 z"
       style="fill:none;stroke:#000000;stroke-width:5;stroke-linecap:round;stroke-linejoin:round;stroke-miterlimit:10;stroke-dasharray:40.5551, 40.5551;stroke-dashoffset:0;stroke-opacity:1"
       transform="matrix(0.13333333,0,0,-0.13333333,0,460.30667)" />
    <path
       id="path14"
       d="m 110.676,1369.37 v 0"
       style="fill:none;stroke:#000000;stroke-width:30;stroke-linecap:round;stroke-linejoin:round;stroke-miterlimit:10;stroke-dasharray:none;stroke-opacity:1"
       transform="matrix(0.13333333,0,0,-0.13333333,0,460.30667)" />
    <path
       id="path15"
       d="m 1394.03,1939.94 v 0"
       style="fill:none;stroke:#000000;stroke-width:30;stroke-linecap:round;stroke-linejoin:round;stroke-miterlimit:10;stroke-dasharray:none;stroke-opacity:1"
       transform="matrix(0.13333333,0,0,-0.13333333,0,460.30667)" />
    <path
       id="path16"
       d="m 480.27,14.3984 v 0"
       style="fill:none;stroke:#000000;stroke-width:30;stroke-linecap:round;stroke-linejoin:round;stroke-miterlimit:10;stroke-dasharray:none;stroke-opacity:1"
       transform="matrix(0.13333333,0,0,-0.13333333,0,460.30667)" />
    <path
       id="path17"
       d="M 480.363,14.0586 C 1076.68,176.332 1515.15,721.645 1515.15,1369.37 c 0,527.77 -291.11,987.54 -721.513,1227.52"
       style="fill:none;stroke:#000000;stroke-width:5;stroke-linecap:round;stroke-linejoin:round;stroke-miterlimit:10;stroke-dasharray:none;stroke-opacity:1"
       transform="matrix(0.13333333,0,0,-0.13333333,0,460.30667)" />
    <path
       id="path18"
       d="m 3408.72,1369.46 c -294.84,429.71 -789.52,711.58 -1350.03,711.58 -903.58,0 -1636.088,-732.51 -1636.088,-1636.095 0,-149.047 19.929,-293.437 57.273,-430.652"
       style="fill:none;stroke:#000000;stroke-width:5;stroke-linecap:round;stroke-linejoin:round;stroke-miterlimit:10;stroke-dasharray:none;stroke-opacity:1"
       transform="matrix(0.13333333,0,0,-0.13333333,0,460.30667)" />
    <path
       id="path19"
       d="M 480.27,14.3984 2058.69,3340.57"
       style="fill:none;stroke:#000000;stroke-width:5;stroke-linecap:round;stroke-linejoin:round;stroke-miterlimit:10;stroke-dasharray:none;stroke-opacity:1"
       transform="matrix(0.13333333,0,0,-0.13333333,0,460.30667)" />
    <path
       id="path20"
       d="m 1515.15,2195.17 v 0"
       style="fill:none;stroke:#000000;stroke-width:30;stroke-linecap:round;stroke-linejoin:round;stroke-miterlimit:10;stroke-dasharray:none;stroke-opacity:1"
       transform="matrix(0.13333333,0,0,-0.13333333,0,460.30667)" />
    <path
       id="path21"
       d="m 1123.27,1369.37 v 0"
       style="fill:none;stroke:#000000;stroke-width:30;stroke-linecap:round;stroke-linejoin:round;stroke-miterlimit:10;stroke-dasharray:none;stroke-opacity:1"
       transform="matrix(0.13333333,0,0,-0.13333333,0,460.30667)" />
    <path
       id="path22"
       d="m 110.676,1369.37 682.84,1227.3"
       style="fill:none;stroke:#000000;stroke-width:5;stroke-linecap:round;stroke-linejoin:round;stroke-miterlimit:10;stroke-dasharray:none;stroke-opacity:1"
       transform="matrix(0.13333333,0,0,-0.13333333,0,460.30667)" />
    <path
       id="path23"
       d="M 110.676,1369.37 H 708.793"
       style="fill:none;stroke:#000000;stroke-width:5;stroke-linecap:round;stroke-linejoin:round;stroke-miterlimit:10;stroke-dasharray:none;stroke-opacity:1"
       transform="matrix(0.13333333,0,0,-0.13333333,0,460.30667)" />
    <path
       id="path24"
       d="M 110.676,1369.37 480.27,14.3984"
       style="fill:none;stroke:#000000;stroke-width:5;stroke-linecap:round;stroke-linejoin:round;stroke-miterlimit:10;stroke-dasharray:none;stroke-opacity:1"
       transform="matrix(0.13333333,0,0,-0.13333333,0,460.30667)" />
    <path
       id="path25"
       d="M 110.676,1369.37 1316.66,649.555"
       style="fill:none;stroke:#000000;stroke-width:5;stroke-linecap:round;stroke-linejoin:round;stroke-miterlimit:10;stroke-dasharray:none;stroke-opacity:1"
       transform="matrix(0.13333333,0,0,-0.13333333,0,460.30667)" />
    <path
       id="path26"
       d="M 1316.66,649.555 793.516,2596.67"
       style="fill:none;stroke:#000000;stroke-width:5;stroke-linecap:round;stroke-linejoin:round;stroke-miterlimit:10;stroke-dasharray:none;stroke-opacity:1"
       transform="matrix(0.13333333,0,0,-0.13333333,0,460.30667)" />
    <path
       id="path27"
       d="M 1316.66,649.555 2058.69,3340.57"
       style="fill:none;stroke:#000000;stroke-width:5;stroke-linecap:round;stroke-linejoin:round;stroke-miterlimit:10;stroke-dasharray:none;stroke-opacity:1"
       transform="matrix(0.13333333,0,0,-0.13333333,0,460.30667)" />
    <text
       id="text27"
       xml:space="preserve"
       transform="matrix(1.3333333,0,0,1.3333333,80.453067,282.14667)"><tspan
         id="tspan27"
         style="font-variant:normal;font-weight:normal;font-size:9.96264px;font-family:CMMI10;writing-mode:lr-tb;fill:#000000;fill-opacity:1;fill-rule:nonzero;stroke:none"
         x="0"
         dx="0 275.96811"
         y="0">AB</tspan><tspan
         id="tspan28"
         style="font-variant:normal;font-weight:normal;font-size:9.96264px;font-family:CMMI10;writing-mode:lr-tb;fill:#000000;fill-opacity:1;fill-rule:nonzero;stroke:none"
         x="140.16"
         y="98.8797">M</tspan><tspan
         id="tspan29"
         style="font-variant:normal;font-weight:normal;font-size:9.96264px;font-family:CMMI10;writing-mode:lr-tb;fill:#000000;fill-opacity:1;fill-rule:nonzero;stroke:none"
         x="94.079903"
         y="0">X</tspan><tspan
         id="tspan30"
         style="font-variant:normal;font-weight:normal;font-size:9.96264px;font-family:CMMI10;writing-mode:lr-tb;fill:#000000;fill-opacity:1;fill-rule:nonzero;stroke:none"
         x="141.59979"
         y="-203.52">C</tspan><tspan
         id="tspan31"
         style="font-variant:normal;font-weight:normal;font-size:9.96264px;font-family:CMMI10;writing-mode:lr-tb;fill:#000000;fill-opacity:1;fill-rule:nonzero;stroke:none"
         x="8.1597996"
         y="-122.7602">P</tspan><tspan
         id="tspan32"
         style="font-variant:normal;font-weight:normal;font-size:9.96264px;font-family:CMMI10;writing-mode:lr-tb;fill:#000000;fill-opacity:1;fill-rule:nonzero;stroke:none"
         x="60.239899"
         y="71.039803">Q</tspan><tspan
         id="tspan33"
         style="font-variant:normal;font-weight:normal;font-size:9.96264px;font-family:CMMI10;writing-mode:lr-tb;fill:#000000;fill-opacity:1;fill-rule:nonzero;stroke:none"
         x="95.039902"
         y="30.359699">O</tspan><tspan
         id="tspan34"
         style="font-variant:normal;font-weight:normal;font-size:6.97385px;font-family:CMR7;writing-mode:lr-tb;fill:#000000;fill-opacity:1;fill-rule:nonzero;stroke:none"
         x="102.59967"
         y="31.799931">2</tspan><tspan
         id="tspan35"
         style="font-variant:normal;font-weight:normal;font-size:9.96264px;font-family:CMMI10;writing-mode:lr-tb;fill:#000000;fill-opacity:1;fill-rule:nonzero;stroke:none"
         x="-59.040329"
         y="-7.0000002e-05">S</tspan><tspan
         id="tspan36"
         style="font-variant:normal;font-weight:normal;font-size:9.96264px;font-family:CMMI10;writing-mode:lr-tb;fill:#000000;fill-opacity:1;fill-rule:nonzero;stroke:none"
         x="76.079674"
         y="-83.280167">O</tspan><tspan
         id="tspan37"
         style="font-variant:normal;font-weight:normal;font-size:6.97385px;font-family:CMR7;writing-mode:lr-tb;fill:#000000;fill-opacity:1;fill-rule:nonzero;stroke:none"
         x="83.639832"
         y="-81.840332">1</tspan><tspan
         id="tspan38"
         style="font-variant:normal;font-weight:normal;font-size:9.96264px;font-family:CMMI10;writing-mode:lr-tb;fill:#000000;fill-opacity:1;fill-rule:nonzero;stroke:none"
         x="40.439831"
         y="-0.00013">D</tspan></text>
  </g>
</svg>
